<svg xmlns="http://www.w3.org/2000/svg" viewBox="0 0 16 16" id="Floppy-Disk--Streamline-Font-Awesome" height="16" width="16">
  <desc>
    Floppy Disk Streamline Icon: https://streamlinehq.com
  </desc>
<!--! Font Awesome Free 6.5.2 by @fontawesome - https://fontawesome.com License - https://fontawesome.com/license/free (Icons: CC BY 4.0, Fonts: SIL OFL 1.1, Code: MIT License) Copyright 2024 Fonticons, Inc.-->
  <path d="M2.4 0.16C1.1645 0.16 0.16 1.1645 0.16 2.4v11.200000000000001c0 1.2355 1.0045 2.2399999999999998 2.2399999999999998 2.2399999999999998h11.200000000000001c1.2355 0 2.2399999999999998 -1.0045 2.2399999999999998 -2.2399999999999998V5.1055c0 -0.595 -0.2345 -1.1655 -0.6545 -1.5855L12.479999999999999 0.8145C12.059999999999999 0.39449999999999996 11.4895 0.16 10.894499999999999 0.16H2.4Zm0 3.36c0 -0.6194999999999999 0.5005 -1.1199999999999999 1.1199999999999999 -1.1199999999999999h6.72c0.6194999999999999 0 1.1199999999999999 0.5005 1.1199999999999999 1.1199999999999999v2.2399999999999998c0 0.6194999999999999 -0.5005 1.1199999999999999 -1.1199999999999999 1.1199999999999999H3.52c-0.6194999999999999 0 -1.1199999999999999 -0.5005 -1.1199999999999999 -1.1199999999999999V3.52ZM8 9.12c1.7243535714285714 0 2.802075 1.866667857142857 1.9398964285714286 3.36 -0.40011785714285714 0.6930285714285714 -1.1396571428571427 1.1199642857142857 -1.9398964285714286 1.1199999999999999 -1.7243535714285714 0.00007857142857142857 -2.8020571428571426 -1.866542857142857 -1.9399464285714285 -3.359914285714286C6.460178571428571 9.546978571428571 7.199689285714285 9.12 8 9.12Z" fill="#000000" stroke-width="0.0357"></path>
</svg>